<?xml version="1.0" standalone="no"?>
<!DOCTYPE svg PUBLIC "-//W3C//DTD SVG 20010904//EN"
 "http://www.w3.org/TR/2001/REC-SVG-20010904/DTD/svg10.dtd">
<svg version="1.0" xmlns="http://www.w3.org/2000/svg"
 width="800.000000pt" height="800.000000pt" viewBox="0 0 800.000000 800.000000"
 preserveAspectRatio="xMidYMid meet">
<metadata>
Created by potrace 1.14, written by Peter Selinger 2001-2017
</metadata>
<g transform="translate(0.000000,800.000000) scale(0.100000,-0.100000)"
fill="#000000" stroke="none">
<path d="M3907 7419 c-9 -6 -22 -7 -27 -4 -6 3 -10 1 -10 -5 0 -8 -6 -8 -20 0
-11 6 -20 7 -20 1 0 -5 -14 -6 -34 -1 -19 4 -40 4 -47 -1 -7 -4 -17 -5 -21 -3
-17 11 -101 5 -108 -6 -4 -7 -20 -10 -39 -7 -17 3 -31 2 -31 -1 0 -10 -73 -8
-89 2 -9 6 -12 5 -7 -2 4 -6 -1 -11 -11 -12 -55 -2 -84 -8 -96 -18 -11 -10
-17 -9 -27 3 -12 14 -15 14 -30 0 -13 -12 -20 -13 -25 -5 -4 6 -14 8 -24 4 -9
-4 -41 -8 -71 -10 -30 -1 -61 -3 -68 -3 -7 -1 -10 -6 -6 -13 5 -8 -2 -9 -24
-5 -18 4 -32 2 -32 -3 0 -5 -20 -7 -45 -6 -24 2 -42 0 -40 -4 7 -12 -50 -23
-74 -15 -11 3 -30 1 -41 -5 -12 -7 -44 -12 -71 -13 -27 -1 -49 -4 -49 -7 0 -3
-8 -6 -17 -7 -58 -2 -93 -8 -93 -15 0 -4 -3 -7 -7 -7 -5 1 -11 0 -15 -1 -5 -1
-20 -4 -35 -5 -110 -11 -163 -23 -163 -34 0 -4 -13 -6 -30 -5 -16 1 -30 -3
-30 -8 0 -6 -6 -5 -15 2 -13 11 -19 7 -17 -11 1 -4 -8 -5 -18 -2 -11 3 -26 1
-33 -5 -6 -5 -25 -11 -42 -13 -16 -2 -35 -7 -42 -12 -7 -5 -17 -6 -22 -3 -5 4
-12 2 -15 -3 -4 -5 -18 -8 -31 -5 -14 2 -25 0 -25 -5 0 -5 -21 -12 -47 -16
-27 -4 -52 -10 -58 -13 -10 -6 -16 -8 -50 -15 -8 -2 -17 -6 -21 -10 -4 -4 -17
-4 -29 -1 -13 3 -26 1 -30 -5 -3 -6 -10 -9 -15 -6 -5 3 -11 1 -15 -5 -3 -5
-17 -10 -30 -10 -13 0 -27 -5 -31 -11 -4 -8 -8 -8 -13 0 -5 7 -14 6 -31 -2
-14 -7 -28 -13 -32 -13 -4 1 -17 -7 -29 -17 -12 -11 -34 -23 -50 -29 -16 -5
-26 -14 -23 -19 3 -5 -2 -6 -10 -3 -9 3 -16 1 -16 -6 0 -6 -5 -8 -10 -5 -6 4
-23 -5 -37 -20 -15 -14 -39 -29 -55 -32 -15 -3 -26 -10 -25 -16 1 -7 -8 -13
-21 -15 -12 -2 -20 -8 -17 -13 4 -5 -1 -9 -11 -9 -9 0 -27 -12 -40 -26 -13
-14 -27 -23 -32 -21 -4 3 -18 -10 -32 -29 -14 -18 -28 -34 -33 -34 -4 0 -22
-14 -40 -32 -17 -17 -26 -28 -18 -23 10 6 12 4 7 -4 -5 -7 -13 -10 -20 -8 -12
4 -49 -31 -54 -52 -1 -7 -14 -23 -27 -35 -14 -13 -25 -28 -25 -34 0 -6 -11
-19 -25 -30 -13 -11 -22 -22 -19 -25 3 -3 -4 -8 -15 -12 -11 -3 -18 -12 -15
-19 3 -8 -4 -20 -15 -28 -12 -8 -18 -17 -15 -21 3 -3 -3 -16 -15 -28 -12 -13
-21 -29 -21 -36 0 -7 -4 -13 -8 -13 -4 0 -9 -10 -9 -22 -1 -13 -7 -24 -13 -26
-5 -2 -10 -9 -10 -16 0 -8 -8 -24 -18 -37 -10 -13 -19 -37 -21 -54 -2 -16 -6
-32 -10 -35 -11 -7 -34 -101 -33 -132 0 -10 -3 -18 -8 -18 -4 0 -8 -10 -7 -22
0 -23 -9 -78 -19 -110 -3 -10 -1 -18 5 -18 5 0 8 -35 6 -87 -1 -49 2 -96 6
-105 6 -10 5 -19 -1 -23 -11 -7 4 -52 26 -76 9 -10 11 -19 6 -23 -9 -5 -9 -23
1 -96 2 -14 9 -35 15 -46 6 -12 8 -24 5 -28 -10 -10 -11 -46 -1 -40 7 5 13
-59 9 -93 -1 -7 3 -13 9 -13 7 0 5 -7 -4 -16 -12 -11 -13 -20 -6 -34 7 -13 6
-20 -3 -23 -8 -4 -9 -6 0 -6 8 -1 9 -10 2 -33 -5 -17 -7 -34 -4 -36 3 -3 0
-11 -6 -19 -9 -10 -8 -13 2 -13 10 0 11 -2 2 -8 -6 -4 -13 -22 -16 -40 -5 -29
-23 -71 -63 -142 -7 -14 -14 -33 -14 -43 0 -10 -7 -20 -15 -23 -8 -4 -13 -10
-10 -14 3 -5 0 -12 -5 -15 -6 -4 -15 -17 -21 -28 -14 -33 -33 -61 -46 -70 -7
-4 -13 -17 -13 -28 0 -11 -4 -17 -10 -14 -5 3 -10 1 -10 -5 0 -6 -11 -23 -25
-38 -14 -15 -25 -33 -25 -40 0 -7 -4 -10 -10 -7 -5 3 -10 -1 -10 -9 0 -9 -5
-16 -11 -16 -5 0 -8 -4 -5 -9 4 -5 -5 -23 -19 -39 -14 -16 -25 -39 -25 -50 0
-34 -11 -51 -27 -45 -11 4 -14 2 -9 -5 4 -7 2 -12 -4 -12 -6 0 -9 -4 -6 -9 3
-5 -1 -14 -9 -21 -8 -7 -13 -16 -10 -20 8 -12 -16 -73 -38 -97 -13 -15 -16
-23 -8 -23 11 0 11 -3 1 -15 -10 -12 -10 -15 0 -15 9 0 9 -4 2 -12 -5 -7 -8
-24 -6 -37 4 -21 2 -22 -12 -10 -16 13 -16 12 -5 -10 7 -13 9 -26 4 -30 -5 -3
-8 -13 -8 -21 1 -8 -4 -21 -9 -29 -8 -11 -8 -13 1 -7 8 4 13 1 13 -8 0 -9 -5
-16 -11 -16 -5 0 -7 -4 -4 -10 3 -5 0 -10 -7 -10 -8 0 -9 -3 -3 -8 15 -10 17
-30 5 -51 -5 -10 -6 -22 -2 -25 12 -12 11 -70 -1 -85 -10 -12 -8 -14 8 -8 20
7 20 7 1 -8 -11 -8 -15 -15 -9 -15 6 0 10 -8 10 -17 0 -43 3 -54 15 -47 6 4 8
3 4 -4 -3 -6 -2 -21 3 -35 6 -16 6 -28 -2 -36 -8 -8 -8 -14 2 -23 11 -11 12
-10 6 1 -5 10 -4 12 4 7 6 -4 9 -11 6 -16 -6 -9 13 -69 28 -88 6 -8 12 -23 14
-35 2 -11 8 -26 13 -32 6 -7 11 -25 12 -40 2 -15 10 -33 20 -38 12 -8 14 -15
6 -24 -8 -10 -5 -13 11 -13 11 0 20 -3 20 -7 -4 -22 2 -43 10 -39 10 7 25 -22
22 -42 -1 -7 9 -22 22 -32 14 -11 28 -31 31 -45 4 -14 11 -25 17 -25 6 0 8 -4
4 -9 -3 -5 -1 -12 5 -16 5 -3 10 -17 10 -31 0 -14 4 -22 10 -19 6 3 10 -1 10
-9 0 -9 5 -16 11 -16 5 0 7 -4 4 -10 -3 -6 -1 -10 6 -10 7 0 9 -3 6 -7 -4 -3
1 -12 11 -19 11 -9 13 -13 4 -14 -7 0 -10 -5 -7 -10 4 -6 11 -7 17 -4 6 4 8 2
4 -4 -3 -6 -1 -23 6 -39 6 -15 13 -41 15 -58 3 -16 8 -34 13 -40 4 -5 6 -19 4
-30 -2 -11 4 -25 12 -32 10 -7 13 -17 8 -24 -11 -19 -14 -59 -4 -59 4 0 8 -16
7 -35 -1 -19 -4 -35 -9 -35 -8 0 -3 -74 6 -89 4 -5 2 -12 -3 -16 -5 -3 -10
-13 -10 -23 0 -40 -11 -97 -19 -100 -5 -1 -7 -15 -4 -31 2 -16 -1 -32 -8 -36
-8 -5 -6 -11 7 -21 13 -10 15 -16 6 -21 -6 -5 -10 -23 -9 -41 1 -18 -2 -36 -7
-39 -5 -3 -3 -9 4 -13 10 -7 10 -12 1 -22 -8 -10 -9 -25 -2 -50 6 -19 10 -46
10 -59 0 -13 2 -37 4 -54 3 -16 5 -38 5 -47 1 -10 4 -17 9 -17 19 3 26 -2 12
-11 -13 -8 -13 -13 3 -39 9 -16 14 -37 10 -46 -4 -11 0 -21 10 -27 10 -5 17
-17 17 -26 0 -10 5 -23 12 -30 7 -7 8 -12 4 -12 -5 0 3 -15 16 -33 14 -17 33
-51 43 -74 13 -29 22 -39 33 -35 10 4 13 1 8 -7 -5 -8 0 -18 13 -27 12 -8 21
-21 21 -28 0 -6 18 -29 40 -50 22 -21 40 -44 40 -52 0 -8 7 -14 16 -14 17 0
44 -23 44 -38 0 -5 8 -16 17 -23 10 -8 14 -9 10 -2 -4 6 -2 15 4 19 8 4 9 3 5
-4 -4 -7 -2 -12 4 -12 6 0 8 -5 5 -10 -3 -6 0 -10 7 -10 7 0 27 -12 43 -28 17
-15 47 -36 67 -46 20 -11 35 -24 32 -28 -3 -4 -1 -8 4 -8 5 0 25 -11 44 -23
19 -13 42 -23 52 -21 11 1 16 -2 13 -10 -3 -7 0 -13 7 -13 6 0 31 -12 55 -27
24 -15 40 -23 37 -17 -4 6 -4 11 1 11 12 0 35 -16 34 -24 -3 -19 0 -26 10 -26
6 0 7 6 2 13 -4 6 5 4 20 -6 15 -9 27 -15 27 -12 0 3 13 -1 30 -10 16 -8 37
-15 46 -15 9 0 23 -8 31 -17 8 -10 12 -12 8 -5 -3 7 11 1 31 -13 21 -14 44
-23 51 -21 7 3 15 1 19 -5 3 -6 12 -8 19 -5 8 3 15 0 17 -5 2 -5 16 -11 31
-13 15 -1 33 -8 39 -14 7 -7 24 -12 39 -12 15 0 35 -7 44 -17 13 -12 19 -13
25 -4 5 10 9 9 13 -2 3 -9 13 -13 25 -10 12 3 22 -2 26 -12 4 -11 16 -16 33
-15 49 3 74 0 69 -8 -3 -5 12 -9 32 -10 51 -3 84 -10 91 -20 3 -5 18 -8 34 -8
15 1 27 -2 27 -6 0 -4 11 -8 23 -8 13 0 27 -3 31 -7 3 -4 16 -8 29 -10 12 -1
38 -5 57 -7 33 -5 69 -12 80 -16 3 -1 9 -2 14 -1 4 1 13 -3 20 -8 6 -5 32 -8
58 -7 26 1 49 -3 51 -8 2 -6 24 -10 50 -10 26 0 47 -4 47 -8 0 -4 9 -5 20 -3
11 2 20 -1 20 -6 0 -6 9 -7 21 -4 14 5 19 3 15 -4 -5 -7 3 -7 25 1 24 8 33 8
39 -2 4 -7 12 -10 18 -6 6 3 13 2 16 -3 3 -5 31 -8 62 -7 35 0 58 -3 61 -11 3
-7 26 -12 56 -12 76 0 131 -6 146 -15 8 -5 17 -3 22 5 7 11 9 9 9 -6 0 -13 3
-16 8 -8 9 14 52 6 52 -9 0 -5 5 -6 10 -3 6 4 7 12 3 18 -5 9 -3 9 8 1 8 -7
25 -11 39 -10 14 1 31 -5 38 -14 12 -13 13 -13 8 3 -5 17 9 25 16 8 4 -13 89
-21 108 -11 10 5 29 2 49 -7 28 -14 34 -14 42 -2 7 12 9 12 9 -1 0 -12 2 -13
9 -1 7 11 10 11 15 0 4 -10 8 -11 12 -2 4 8 12 8 32 -3 23 -12 29 -11 46 4 12
11 16 12 11 3 -6 -11 -4 -13 8 -8 9 3 19 3 21 -2 3 -4 27 -6 53 -4 26 2 59 3
73 2 14 0 42 -1 63 -2 20 -1 37 -5 37 -10 0 -5 6 -7 13 -4 6 2 20 0 31 -5 12
-7 16 -7 12 0 -3 6 -2 13 4 17 5 3 10 1 10 -5 0 -8 6 -7 21 1 13 6 24 7 28 2
8 -12 49 -14 56 -3 3 5 15 6 28 1 12 -5 39 -7 59 -5 21 3 40 -1 44 -7 5 -8 9
-7 15 2 9 15 179 22 179 7 0 -5 10 -4 21 3 12 6 34 9 50 7 22 -3 29 0 29 11 0
12 3 13 8 4 8 -12 70 -12 90 1 6 3 12 0 15 -6 3 -9 7 -7 12 5 7 17 8 17 21 0
12 -17 14 -17 29 2 9 11 14 14 10 8 -3 -7 -1 -13 4 -13 6 0 11 5 11 11 0 6 8
9 19 6 10 -2 26 0 35 5 10 6 16 5 16 -2 0 -6 4 -9 9 -6 7 4 117 16 178 19 7 0
11 5 10 11 -2 9 62 10 72 0 2 -2 17 4 33 12 23 12 28 12 22 2 -6 -11 -5 -11 8
0 12 9 18 10 23 2 5 -8 10 -8 20 0 8 6 19 10 27 9 7 -1 25 3 40 9 16 6 42 9
60 5 24 -5 29 -3 23 7 -6 9 0 10 24 5 23 -5 31 -3 29 6 -2 7 9 13 27 14 17 2
30 3 30 4 0 4 39 12 70 15 17 2 30 4 30 5 0 2 11 5 25 7 13 2 27 9 31 15 4 8
9 7 13 -2 5 -11 7 -11 12 -1 3 6 21 12 40 12 19 0 34 5 34 11 0 6 9 8 21 4 16
-5 19 -4 14 6 -6 9 -2 11 13 7 13 -4 22 -1 22 5 0 7 5 5 10 -3 9 -13 14 -8 11
12 0 3 7 5 17 3 9 -1 22 0 27 4 6 3 15 6 20 8 6 1 25 6 43 12 17 5 32 7 32 3
0 -4 4 -2 8 3 11 16 74 46 66 32 -6 -9 -4 -9 8 0 8 7 17 11 20 8 3 -3 11 1 18
10 7 8 27 15 45 15 18 0 38 7 45 15 7 8 16 13 20 10 5 -3 12 0 15 6 4 5 13 8
20 5 8 -3 24 3 37 12 37 27 67 42 83 42 8 0 15 4 15 9 0 10 38 24 58 21 19 -2
53 30 45 43 -4 6 3 8 19 4 24 -6 55 12 43 24 -2 3 9 4 25 3 17 -1 30 2 30 8 0
5 5 6 10 3 6 -3 10 1 10 9 0 9 3 16 8 17 29 3 46 9 53 21 5 7 9 9 9 3 0 -6 3
-6 8 0 20 30 81 62 120 64 6 1 12 8 12 17 0 11 5 14 17 10 10 -4 15 -4 11 -1
-6 6 30 49 42 51 21 3 39 18 33 27 -4 6 2 8 15 5 12 -4 25 -2 28 3 3 5 -1 9
-8 9 -7 0 -1 8 15 18 15 9 27 20 27 24 0 5 7 8 15 8 9 0 12 6 9 15 -4 9 0 15
7 15 17 1 84 86 83 104 -1 9 6 12 20 8 11 -3 18 -1 14 3 -4 4 1 20 12 35 11
16 20 34 20 40 0 7 7 18 15 24 8 6 17 25 18 42 2 17 8 37 13 45 4 7 9 22 9 32
1 10 8 22 15 27 7 4 10 17 7 29 -3 12 -1 19 4 15 5 -3 9 4 9 15 0 10 6 21 13
24 9 3 9 7 -2 20 -8 10 -9 17 -3 17 6 0 11 8 11 17 1 35 9 82 16 92 3 6 1 11
-5 11 -7 0 -9 14 -4 43 3 23 6 53 5 67 0 14 -1 49 -2 78 0 28 -5 52 -11 52 -5
0 -6 5 -3 11 12 18 12 74 1 81 -8 5 -7 13 1 27 9 15 10 22 1 27 -7 5 -8 3 -3
-6 6 -9 4 -11 -5 -5 -11 7 -11 10 1 18 14 9 14 15 2 49 -10 31 -11 44 -2 54 7
8 7 14 1 14 -13 0 -23 38 -11 46 5 3 9 10 9 15 0 6 -4 8 -8 5 -10 -6 -9 25 2
42 4 7 1 15 -9 18 -13 5 -14 9 -4 15 15 9 21 37 8 44 -5 3 -3 15 4 26 10 16 9
21 -3 29 -13 9 -13 10 0 10 10 0 15 11 16 30 1 17 -3 30 -7 30 -5 0 -9 5 -9
10 0 6 7 10 15 10 11 0 13 8 8 32 -4 20 -3 29 4 25 7 -4 11 6 12 26 0 17 1 41
1 51 1 10 7 28 15 39 7 10 11 26 8 33 -3 8 -1 14 4 14 10 0 12 6 17 56 1 17 6
35 9 41 4 6 8 23 9 37 1 14 6 26 11 26 4 0 6 4 2 9 -3 5 4 16 15 24 17 12 19
19 11 40 -7 17 -7 28 0 32 5 4 7 10 4 15 -3 4 2 10 10 14 8 3 15 13 15 21 0 9
-4 13 -10 10 -14 -9 -12 19 2 33 9 9 9 12 -2 12 -13 0 -13 2 -1 9 7 5 14 25
15 44 0 19 4 38 8 42 3 4 2 21 -3 38 -12 42 -11 60 1 52 6 -4 5 5 -2 20 -10
22 -9 28 3 36 8 5 9 9 3 9 -6 0 -10 19 -9 46 0 28 -5 52 -13 61 -11 10 -11 17
-3 27 7 9 8 17 2 20 -5 3 -8 20 -7 37 1 16 -2 33 -6 35 -5 3 -4 12 2 19 7 9 6
16 -5 25 -10 8 -12 17 -6 24 10 13 -4 56 -18 56 -5 0 -8 8 -6 19 2 10 -3 30
-10 45 -8 14 -11 26 -8 26 3 0 0 7 -7 15 -7 8 -10 15 -6 15 4 0 0 12 -7 28 -7
15 -12 35 -9 46 2 11 0 16 -7 12 -6 -4 -11 0 -11 8 0 9 -4 16 -10 16 -5 0 -10
9 -10 19 0 11 -7 26 -15 34 -8 8 -11 17 -8 20 3 4 -6 20 -21 37 -14 18 -24 36
-20 41 3 5 0 9 -6 9 -6 0 -10 6 -9 13 3 23 -1 40 -7 34 -4 -4 -19 7 -34 24
-19 22 -26 41 -25 65 1 18 -1 31 -5 29 -12 -8 -32 22 -34 50 0 14 -5 25 -10
25 -4 0 -6 7 -3 15 4 8 2 17 -4 20 -5 4 -7 11 -3 16 3 5 1 16 -5 23 -13 16
-11 37 4 48 6 5 6 11 -2 19 -9 9 -9 17 -1 33 8 15 8 21 -1 24 -15 5 -14 32 2
32 9 0 8 3 -2 9 -9 6 -11 16 -5 32 4 13 9 42 10 64 2 22 3 42 5 45 1 3 1 8 0
13 0 4 3 7 7 7 5 0 10 19 11 43 3 85 7 112 15 126 5 8 4 16 -4 21 -8 5 -7 9 5
14 15 5 15 9 4 23 -10 12 -10 14 -1 9 6 -4 12 -3 12 3 0 5 -5 13 -10 16 -11 7
-3 75 9 85 3 3 7 11 9 19 3 12 0 12 -13 1 -13 -11 -15 -10 -9 4 3 9 11 16 18
16 7 0 8 3 1 8 -14 9 -16 93 -3 109 7 9 5 15 -6 19 -14 5 -14 9 -4 22 10 12
10 14 1 8 -7 -4 -13 -2 -13 3 0 6 4 11 8 11 5 0 9 7 9 15 0 8 -4 12 -8 9 -5
-2 -7 22 -6 55 1 32 -2 57 -7 54 -4 -3 -5 9 -1 26 5 26 3 36 -16 52 -12 10
-17 19 -12 19 6 0 13 9 16 20 4 14 0 20 -11 20 -14 0 -14 2 -3 9 9 6 10 11 2
15 -6 4 -9 12 -5 17 3 5 0 16 -6 24 -7 8 -9 15 -5 15 5 0 1 8 -9 19 -9 10 -14
25 -10 34 3 10 0 19 -8 22 -8 3 -13 17 -12 35 1 21 -3 30 -13 30 -8 0 -12 4
-8 9 3 6 -3 25 -14 44 -11 19 -17 38 -14 41 3 3 -2 8 -11 12 -9 3 -14 10 -11
14 3 5 -3 16 -12 26 -10 10 -16 18 -14 18 16 3 -72 106 -89 106 -6 0 -9 3 -9
8 3 19 -2 33 -11 27 -6 -3 -7 1 -4 9 4 12 0 16 -16 16 -17 0 -20 4 -15 20 6
18 3 20 -19 14 -25 -6 -33 5 -27 39 1 5 -2 6 -6 4 -5 -3 -35 17 -67 43 -33 27
-64 46 -69 43 -6 -3 -7 -2 -4 3 9 15 -4 28 -45 47 -21 10 -38 22 -38 27 0 5
-8 6 -17 3 -12 -5 -15 -2 -10 10 4 12 2 14 -10 10 -11 -4 -14 -2 -9 5 5 8 -1
12 -16 13 -55 3 -71 7 -79 20 -4 7 -20 14 -35 14 -16 1 -30 8 -32 16 -3 11 -1
11 7 -1 6 -8 11 -10 11 -5 0 18 -22 34 -38 28 -9 -4 -13 -2 -9 4 4 5 -5 15
-19 22 -14 6 -23 15 -19 21 3 5 -4 7 -15 5 -12 -2 -20 1 -20 10 0 8 -13 15
-32 17 -19 2 -32 8 -31 15 1 6 -11 17 -27 25 -17 7 -30 19 -30 26 0 7 -4 11
-10 7 -5 -3 -18 3 -29 14 -10 10 -27 21 -38 23 -10 2 -17 9 -16 15 1 6 -6 9
-16 6 -10 -3 -22 0 -25 6 -4 6 -16 11 -27 11 -10 0 -19 5 -19 11 0 5 -4 7 -10
4 -5 -3 -10 1 -10 9 0 9 -7 17 -15 17 -31 3 -35 4 -55 21 -11 10 -31 20 -45
24 -14 3 -25 10 -25 14 0 5 -11 7 -25 4 -14 -2 -25 0 -25 6 0 5 -9 10 -20 10
-11 0 -20 5 -20 11 0 6 -6 9 -14 6 -8 -3 -17 -1 -20 6 -3 9 -7 8 -15 -2 -8
-12 -12 -10 -22 12 -10 21 -15 24 -30 16 -11 -5 -19 -6 -19 -2 0 8 -74 34
-110 39 -8 1 -26 5 -40 9 -14 4 -35 8 -47 9 -12 0 -25 4 -29 9 -4 4 -16 7 -26
7 -10 0 -18 5 -18 10 0 7 -6 7 -20 0 -14 -8 -20 -8 -20 0 0 6 -6 10 -12 8 -7
-1 -24 4 -37 11 -13 7 -21 8 -17 3 4 -6 -2 -8 -14 -5 -11 3 -20 9 -20 13 0 4
-21 8 -47 9 -27 1 -56 4 -66 7 -10 3 -25 0 -34 -8 -9 -7 -14 -8 -11 -3 4 6 3
17 -1 24 -7 10 -13 10 -29 2 -13 -7 -23 -7 -27 -1 -3 5 -19 7 -34 4 -16 -3
-31 -1 -35 4 -3 6 -15 8 -27 5 -12 -4 -25 0 -30 8 -6 10 -9 10 -9 2 0 -7 -7
-13 -16 -13 -9 0 -12 5 -8 12 4 7 3 8 -4 4 -6 -4 -20 -2 -31 4 -11 5 -22 7
-24 3 -7 -11 -90 -9 -107 3 -22 13 -170 15 -170 1 0 -6 -7 -2 -15 9 -8 11 -15
14 -15 7 0 -15 -21 -13 -33 2 -6 7 -10 6 -13 -2 -4 -8 -13 -9 -27 -4 -12 4
-48 6 -79 6 -32 -1 -58 2 -58 6 0 5 -7 6 -15 3 -8 -4 -12 -11 -8 -18 3 -6 -4
-2 -17 9 -16 14 -24 16 -27 8 -3 -7 -9 -13 -14 -13 -6 0 -8 4 -5 8 5 8 -17 8
-79 -2 -16 -3 -36 0 -43 6 -9 8 -16 8 -20 2 -9 -14 -54 -16 -46 -2 4 6 -2 6
-15 -1 -16 -9 -21 -9 -21 0 0 8 -4 8 -15 -1 -8 -7 -15 -10 -15 -6 0 3 -11 1
-24 -4 -19 -7 -26 -6 -28 5 -2 10 -8 11 -21 4z m-222 -19 c3 -5 1 -10 -4 -10
-6 0 -11 5 -11 10 0 6 2 10 4 10 3 0 8 -4 11 -10z"/>
<path d="M3330 7369 c0 -5 5 -7 10 -4 6 3 10 8 10 11 0 2 -4 4 -10 4 -5 0 -10
-5 -10 -11z"/>
</g>
</svg>
